<?xml version="1.0" encoding="UTF-8"?>
<svg viewBox="0 0 350 350" xmlns="http://www.w3.org/2000/svg" xmlns:xlink="http://www.w3.org/1999/xlink">
 <defs>
  <clipPath id="am">
   <use x="-223.640625" y="240.34668" width="1" height="1" xlink:href="#m"/>
  </clipPath>
  <filter id="al" color-interpolation-filters="sRGB">
   <feGaussianBlur stdDeviation="0.978117"/>
  </filter>
  <filter id="ak" color-interpolation-filters="sRGB">
   <feGaussianBlur stdDeviation="0.85452"/>
  </filter>
  <filter id="ai" color-interpolation-filters="sRGB">
   <feGaussianBlur stdDeviation="5.045493"/>
  </filter>
  <filter id="aj" color-interpolation-filters="sRGB">
   <feGaussianBlur stdDeviation="2.133159"/>
  </filter>
  <linearGradient id="ah" x2="1.0144" y1=".5" y2=".5">
   <stop stop-color="#2b2b2b" offset="0"/>
   <stop stop-color="#4c4c4c" offset=".5"/>
   <stop stop-color="#2b2b2b" offset="1"/>
  </linearGradient>
  <linearGradient id="ag" x1=".45057" x2=".45057" y1="-.007214" y2="1.0087">
   <stop stop-opacity="0" offset="0"/>
   <stop offset=".62808"/>
   <stop stop-opacity="0" offset="1"/>
  </linearGradient>
  <linearGradient id="p" x1=".059373" x2=".94259" y1=".42084" y2=".41807" xlink:href="#c"/>
  <linearGradient id="v" x1=".021705" x2=".27508" y1=".25148" y2="1.0229" xlink:href="#e"/>
  <linearGradient id="q" x1=".11442" x2="1.0169" y1=".42491" y2=".42209" xlink:href="#c"/>
  <linearGradient id="r" x1="-.000645" x2=".99936" y1=".4463" y2=".4463" xlink:href="#c"/>
  <linearGradient id="af" y1=".5" y2=".5">
   <stop offset="0"/>
   <stop stop-color="#fff" offset=".5"/>
   <stop offset="1"/>
  </linearGradient>
  <linearGradient id="z" x1=".66432" x2="-.007042" y1=".34968" y2=".34542" xlink:href="#f"/>
  <linearGradient id="ae" x1="1e-6" y1=".50031" y2=".50031">
   <stop stop-color="#fff" stop-opacity="0" offset="0"/>
   <stop stop-color="#fff" offset=".5"/>
   <stop stop-color="#fff" stop-opacity="0" offset="1"/>
  </linearGradient>
  <linearGradient id="y" y1=".5" y2=".5" xlink:href="#d"/>
  <linearGradient id="w" x1=".20045" x2=".78127" y1=".55882" y2=".54813" xlink:href="#b"/>
  <linearGradient id="x" x1=".79955" x2=".21873" y1=".55882" y2=".54813" xlink:href="#b"/>
  <linearGradient id="g" x1="2e-6" y1=".5" y2=".5" xlink:href="#b"/>
  <linearGradient id="ad" x1=".95844" x2=".010064" y1="1.0706" y2=".79319">
   <stop stop-color="#fff" offset="0"/>
   <stop stop-color="#fff" offset=".14276"/>
   <stop stop-color="#515151" offset="1"/>
  </linearGradient>
  <linearGradient id="aa" x1=".30906" x2="1.0073" y1=".38603" y2=".382" xlink:href="#f"/>
  <linearGradient id="ac" x1=".78025" x2=".14917" y1=".066918" y2=".84938">
   <stop stop-color="#9ad837" offset="0"/>
   <stop stop-color="#ccf25a" stop-opacity="0" offset="1"/>
  </linearGradient>
  <linearGradient id="ab" x1=".29131" x2=".57395" y1=".115" y2=".61711">
   <stop stop-color="#fff" offset="0"/>
   <stop stop-color="#fff" stop-opacity="0" offset="1"/>
  </linearGradient>
  <linearGradient id="s" x1="-.03125" x2="1.0313" y1=".52001" y2=".52001" xlink:href="#d"/>
  <linearGradient id="f">
   <stop stop-color="#3d900c" offset="0"/>
   <stop stop-color="#081406" offset="1"/>
  </linearGradient>
  <linearGradient id="e">
   <stop stop-color="#13a201" offset="0"/>
   <stop stop-color="#12f900" stop-opacity="0" offset="1"/>
  </linearGradient>
  <linearGradient id="t" x1="-.031247" x2="1.0313" y1=".52001" y2=".52001" xlink:href="#d"/>
  <linearGradient id="b">
   <stop stop-color="#fff" offset="0"/>
   <stop stop-color="#fff" stop-opacity="0" offset="1"/>
  </linearGradient>
  <linearGradient id="u" x1="-.03125" x2="1.0313" y1=".52" y2=".52">
   <stop stop-color="#fff" offset="0"/>
   <stop stop-color="#fff" stop-opacity="0" offset=".25"/>
   <stop stop-color="#fff" stop-opacity="0" offset=".75"/>
   <stop stop-color="#fff" offset="1"/>
  </linearGradient>
  <linearGradient id="d">
   <stop stop-color="#fff" offset="0"/>
   <stop stop-color="#fff" stop-opacity="0" offset=".45"/>
   <stop stop-color="#fff" stop-opacity="0" offset=".55"/>
   <stop stop-color="#fff" offset="1"/>
  </linearGradient>
  <linearGradient id="c">
   <stop stop-color="#fff" stop-opacity="0" offset="0"/>
   <stop stop-color="#fff" offset=".5"/>
   <stop stop-color="#fff" stop-opacity="0" offset="1"/>
  </linearGradient>
  <radialGradient id="l" cx="103.49" cy="591.2" r="25.516" gradientTransform="matrix(1.0623 .039114 -.022318 .60612 78.255 -50.697)" gradientUnits="userSpaceOnUse">
   <stop stop-color="#2b2b2b" offset="0"/>
   <stop offset=".75"/>
   <stop offset="1"/>
  </radialGradient>
  <radialGradient id="i" cx="271.68" cy="361.14" r="76.115" gradientTransform="matrix(1 0 0 1.326 -59.299 -389.08)" gradientUnits="userSpaceOnUse" xlink:href="#e"/>
  <radialGradient id="j" cx="361.26" cy="463.19" r="8.2075" gradientTransform="matrix(1.2154 0 0 1.2154 -264.26 -357.87)" gradientUnits="userSpaceOnUse">
   <stop stop-color="#fff" stop-opacity="0" offset="0"/>
   <stop stop-color="#fff" stop-opacity="0" offset=".27704"/>
   <stop stop-color="#fff" stop-opacity=".655" offset=".44438"/>
   <stop stop-color="#fff" stop-opacity=".654" offset=".56667"/>
   <stop stop-color="#fff" stop-opacity="0" offset=".84593"/>
   <stop stop-color="#fff" stop-opacity="0" offset="1"/>
  </radialGradient>
  <radialGradient id="k" cx="420.54" cy="337.43" r="25.906" gradientTransform="matrix(1.3691 1.4905 -.58399 .53644 -180.27 -733.28)" gradientUnits="userSpaceOnUse">
   <stop stop-color="#fff" offset="0"/>
   <stop stop-color="#bbec68" offset=".5"/>
   <stop stop-color="#9ada21" stop-opacity=".488" offset="1"/>
  </radialGradient>
  <radialGradient id="h" cx="43.942" cy="282.63" r="137.36" gradientTransform="matrix(.83607 0 0 .70968 78.719 -175.29)" gradientUnits="userSpaceOnUse">
   <stop stop-color="#0a4500" offset="0"/>
   <stop stop-color="#26ff00" offset=".26341"/>
   <stop stop-color="#26ff00" stop-opacity="0" offset="1"/>
  </radialGradient>
 </defs>
 <path d="m172.95 45.841c-6.8116 0.10263-9.4446 0.52075-18.969 3.1875-13.374 3.7448-23.735 10.662-30.688 16.812-6.6836 5.9124-15.015 13.967-21.406 26.75-6.7344 13.469-8.0745 33.133-6.75 47.438 1.3959 15.076 10.386 33.228 17.406 43.219 6.5564 9.3303 14.084 20.838 14.906 29.062 1.0112 10.112 2 19.996 2 25.594 0 5.1232 2.4414 9.5283 4.9688 12.688 1.801 2.2512 4.1013 3.3901 6.3125 4.1875 2.2112 0.79736 4.3095 1.2188 6.2812 1.2188h55.969c1.9718 0 4.07-0.42139 6.2812-1.2188 2.2112-0.79736 4.5116-1.9363 6.3125-4.1875 2.5273-3.1592 4.9688-7.5643 4.9688-12.688 0-5.5978 0.98882-15.482 2-25.594 0.8224-8.224 8.3498-19.732 14.906-29.062 7.0206-9.9908 16.01-28.143 17.406-43.219 1.3245-14.304-0.01561-33.969-6.75-47.438-6.3915-12.783-14.723-20.838-21.406-26.75-6.9521-6.15-17.313-13.068-30.688-16.812-12.846-3.597-16.507-3.2863-23.062-3.1875z" fill="#e1f438" filter="url(#ai)" opacity=".693"/>
 <path d="m216.85 132.61l24.749 0.5051s-0.50508 0.75761-1.0102 5.0508c-0.50508 4.2932-3.921 17.751-8.0812 23.991-3.5355 5.3033-7.3236 10.607-10.859 15.91-3.1324 4.6985-7.0711 13.637-7.8287 20.203-0.75763 6.566-3.0305 29.294-3.0305 34.598 0 5.3033-2.0203 11.112-4.2932 14.395-2.2728 3.283-5.0508 3.7881-7.8287 3.7881h-10.859v-3.5355s1.7678 0.75761 5.3033-2.5254 4.7982-20.203 4.2932-27.779c-0.50508-7.5761-1.7678-37.628-0.50508-42.174 1.2627-4.5457 5.5408-8.3446 8.8388-12.879 4.0406-5.5558 8.5863-13.637 9.849-17.425 1.3576-4.0728 1.2627-12.122 1.2627-12.122z" fill="url(#z)" opacity=".721"/>
 <path d="m155.11 53.07c-12.627 3.5355-22.496 10.098-29.062 15.906-6.566 5.8084-14.377 13.378-20.438 25.5-6.0609 12.122-7.5752 31.55-6.3125 45.188 1.2627 13.637 10.09 31.844 16.656 41.188 6.566 9.3439 14.646 20.961 15.656 31.062 1.0102 10.102 2.0312 19.934 2.0312 26 0 3.5446 2.011 7.5684 4.0312 10.094 2.0203 2.5254 6.8184 3.8125 9.3438 3.8125h55.969c2.5254 0 7.3234-1.2871 9.3438-3.8125 2.0203-2.5254 4.0312-6.5492 4.0312-10.094 0-6.0662 1.0211-15.898 2.0312-26 1.0102-10.102 9.0903-21.719 15.656-31.062 6.566-9.3439 15.394-27.55 16.656-41.188 1.2627-13.637-0.25159-33.066-6.3125-45.188s-13.872-19.692-20.438-25.5c-6.566-5.8084-16.436-12.371-29.062-15.906-12.627-3.5355-15.174-3.1361-21.881-3.035-6.7069 0.10105-8.43 0.38339-17.9 3.035z" fill="url(#h)" filter="url(#aj)" opacity=".314" stroke-width="1.16"/>
 <path d="m155.11 53.07c-12.627 3.5355-22.496 10.098-29.062 15.906-6.566 5.8084-14.377 13.378-20.438 25.5-6.0609 12.122-7.5752 31.55-6.3125 45.188 1.2627 13.637 10.09 31.844 16.656 41.188 6.566 9.3439 14.646 20.961 15.656 31.062 1.0102 10.102 2.0312 19.934 2.0312 26 0 3.5446 2.011 7.5684 4.0312 10.094 2.0203 2.5254 6.8184 3.8125 9.3438 3.8125h55.969c2.5254 0 7.3234-1.2871 9.3438-3.8125 2.0203-2.5254 4.0312-6.5492 4.0312-10.094 0-6.0662 1.0211-15.898 2.0312-26 1.0102-10.102 9.0903-21.719 15.656-31.062 6.566-9.3439 15.394-27.55 16.656-41.188 1.2627-13.637-0.25159-33.066-6.3125-45.188s-13.872-19.692-20.438-25.5c-6.566-5.8084-16.436-12.371-29.062-15.906-12.627-3.5355-15.174-3.1361-21.881-3.035-6.7069 0.10105-8.43 0.38339-17.9 3.035z" fill="url(#v)" opacity=".3"/>
 <path d="m155.11 53.07c-12.627 3.5355-22.496 10.098-29.062 15.906-6.566 5.8084-14.377 13.378-20.438 25.5-6.0609 12.122-7.5752 31.55-6.3125 45.188 1.2627 13.637 10.09 31.844 16.656 41.188 6.566 9.3439 14.646 20.961 15.656 31.062 1.0102 10.102 2.0312 19.934 2.0312 26 0 3.5446 2.011 7.5684 4.0312 10.094 2.0203 2.5254 6.8184 3.8125 9.3438 3.8125h55.969c2.5254 0 7.3234-1.2871 9.3438-3.8125 2.0203-2.5254 4.0312-6.5492 4.0312-10.094 0-6.0662 1.0211-15.898 2.0312-26 1.0102-10.102 9.0903-21.719 15.656-31.062 6.566-9.3439 15.394-27.55 16.656-41.188 1.2627-13.637-0.25159-33.066-6.3125-45.188s-13.872-19.692-20.438-25.5c-6.566-5.8084-16.436-12.371-29.062-15.906-12.627-3.5355-15.174-3.1361-21.881-3.035-6.7069 0.10105-8.43 0.38339-17.9 3.035z" fill="url(#i)" opacity=".721"/>
 <path d="m137.25 128l-25.15-2.4081s0.20044 8.7802 0.70552 13.073c0.50507 4.2932 2.7779 18.183 8.0812 23.486 5.3033 5.3033 8.7072 10.8 11.112 15.91 2.0203 4.2932 5.0508 8.8388 5.8084 15.405 0.75763 6.566 3.0305 34.093 3.0305 39.396 0 5.3033 2.0203 11.112 4.2931 14.395s5.0508 3.7881 7.8287 3.7881h10.859v-3.5355s-1.7678 0.75761-5.3033-2.5254-4.7982-20.203-4.2932-27.779c0.50508-7.5761 1.7678-37.628 0.50508-42.174-1.2627-4.5457-5.5408-8.3446-8.8388-12.879-4.0406-5.5558-6.8185-13.637-8.0812-17.425-1.3576-4.0728-0.55718-16.726-0.55718-16.726z" fill="url(#aa)" opacity=".721"/>
 <path d="m155.11 53.07c-12.627 3.5355-22.496 10.098-29.062 15.906-6.566 5.8084-14.377 13.378-20.438 25.5-6.0609 12.122-7.5752 31.55-6.3125 45.188 1.2627 13.637 10.09 31.844 16.656 41.188 6.566 9.3439 14.646 20.961 15.656 31.062 1.0102 10.102 2.0312 19.934 2.0312 26 0 3.5446 2.011 7.5684 4.0312 10.094 2.0203 2.5254 6.8184 3.8125 9.3438 3.8125h55.969c2.5254 0 7.3234-1.2871 9.3438-3.8125 2.0203-2.5254 4.0312-6.5492 4.0312-10.094 0-6.0662 1.0211-15.898 2.0312-26 1.0102-10.102 9.0903-21.719 15.656-31.062 6.566-9.3439 15.394-27.55 16.656-41.188 1.2627-13.637-0.25159-33.066-6.3125-45.188s-13.872-19.692-20.438-25.5c-6.566-5.8084-16.436-12.371-29.062-15.906-12.627-3.5355-15.174-3.1361-21.881-3.035-6.7069 0.10105-8.43 0.38339-17.9 3.035z" fill="#53b604" opacity=".314"/>
 <path d="m177.49 49.966c-1.3793-0.004002-2.792 0.037201-4.4688 0.0625-6.7069 0.10105-8.4361 0.3796-17.906 3.0312-12.627 3.5355-22.496 10.098-29.062 15.906-6.566 5.8084-14.377 13.378-20.438 25.5-6.0609 12.122-7.5752 31.55-6.3125 45.188 1.2627 13.637 10.09 31.844 16.656 41.188 2.8068-14.736 8.9758-35.581 22.656-53.688 24.286-32.143 62.87-44.982 82.156-47.125 4.4638-0.49598 8.4848-1.3762 12.062-2.375-3.0298-3.3477-6.0663-6.2029-8.875-8.6875-6.566-5.8084-16.436-12.371-29.062-15.906-9.4702-2.6516-13.268-3.083-17.406-3.0938z" fill="url(#ab)" opacity=".852"/>
 <use y="-0.000002" width="744.09448" height="1052.3622" filter="url(#ak)" xlink:href="#n"/>
 <path id="n" d="m189.45 71.494l-0.7576 7.3236s4.5457 1.2627 10.102 6.3135c4.6265 4.2059 9.849 13.132 13.132 19.193 2.9487 5.4437 5.4296 13.89 5.177 28.284l24.496 0.5051s-0.12628-13.89-2.3991-21.718c-2.2728-7.8287-7.3236-20.203-20.456-29.042-13.132-8.8388-20.708-10.607-29.294-10.859z" fill="url(#k)" opacity=".721"/>
 <path d="m137 128l-25.15-2.4081s1.8494-12.252 8.4079-27.08c5.8084-13.132 17.173-25.254 31.062-29.8 13.89-4.5457 23.234-1.5152 24.496 0.75761 1.2627 2.2728 2.0203 6.8185-4.2932 9.0914-6.3134 2.2728-13.132 5.3033-19.445 12.122-6.3134 6.8185-11.112 11.869-12.627 18.688-1.5152 6.8185-2.4512 18.629-2.4512 18.629z" fill="url(#ac)" opacity=".721"/>
 <path id="m" d="m146.3 250.81c-0.45136 0-0.8125 0.31934-0.8125 0.71875v6.0938c0.020905-3.66e-4 0.041504 0 0.0625 0 1.8654 0 3.375 1.5096 3.375 3.375s-1.5096 3.375-3.375 3.375c-0.020996 0-0.041595 3.66e-4 -0.0625 0-0.84889 0.03421-1.5312 0.7366-1.5312 1.5938 0 0.85715 0.68236 1.5596 1.5312 1.5938 0.020905-3.66e-4 0.041504 0 0.0625 0 1.8654 0 3.375 1.5096 3.375 3.375s-1.5096 3.375-3.375 3.375c-0.020996 0-0.041595 3.66e-4 -0.0625 0-0.84889 0.03421-1.5312 0.7366-1.5312 1.5938 0 0.85715 0.68236 1.5596 1.5312 1.5938 0.020905-3.66e-4 0.041504 0 0.0625 0 1.8654 0 3.375 1.5096 3.375 3.375s-1.5096 3.375-3.375 3.375c-0.020996 0-0.041595 3.66e-4 -0.0625 0-0.84889 0.03421-1.5312 0.7366-1.5312 1.5938 0 0.85715 0.68236 1.5596 1.5312 1.5938 0.020905-3.66e-4 0.041504 0 0.0625 0 1.8654 0 3.375 1.5096 3.375 3.375s-1.5096 3.4062-3.375 3.4062c-0.020996 0-0.041595 3.97e-4 -0.0625 0-0.84889 0.032715-1.5312 0.70535-1.5312 1.5625s0.68236 1.5596 1.5312 1.5938v0.6875c0 0.39941 0.094299 0.7663 0.5 0.96875l17.688 8.8125c1.2466 0.62201 0.6337 3.0625 2.5312 3.0625h18.188c1.8976 0 1.245-1.9034 2.8438-2.7188l16.795-9.0312c0.40399-0.20602 0.5-0.69434 0.5-1.0938v-3.875c0.84967-0.033112 1.5312-0.73596 1.5312-1.5938 0-0.85715-0.68246-1.5597-1.5312-1.5938-0.020905 3.66e-4 -0.041504 0-0.0625 0-1.8654 0-3.375-1.5096-3.375-3.375s1.5096-3.4062 3.375-3.4062c0.020996 0 0.041595-3.97e-4 0.0625 0 0.84878-0.034088 1.5312-0.70535 1.5312-1.5625s-0.68246-1.5597-1.5312-1.5938c-0.020905 3.66e-4 -0.041504 0-0.0625 0-1.8654 0-3.375-1.5096-3.375-3.375s1.5096-3.4062 3.375-3.4062c0.020996 0 0.041595-3.97e-4 0.0625 0 0.84878-0.034088 1.5312-0.70535 1.5312-1.5625s-0.68246-1.5597-1.5312-1.5938c-0.020905 3.66e-4 -0.041504 0-0.0625 0-1.8654 0-3.375-1.5096-3.375-3.375s1.5096-3.4062 3.375-3.4062c0.020996 0 0.041595-3.97e-4 0.0625 0 0.84878-0.034088 1.5312-0.70535 1.5312-1.5625s-0.68246-1.5597-1.5312-1.5938l0.8929-9.6562c0.036804-0.3977-0.36114-0.71875-0.8125-0.71875h-58.312z" fill="url(#ah)" stroke-width="3"/>
 <g clip-path="url(#am)" stroke-width="3">
  <path d="m196.87 249.34c-1.5084 0.029694-3.3233 0.30701-4.4062 0.3125-0.57758 0.002991-0.9375 1.625-0.9375 1.625 1.6072 1.0714 1.7812 3.0268 1.7812 4.8125 0 2.8627-0.1741 5.1786-1.7812 6.25-1.6072 1.0714-0.90625 1.9509-0.90625 4.0938l1.4062 43.406 9.8438-8.0312s3.534-7.6827 1.0402-8.25c-0.41658-0.094788-0.74492-0.41748-1.0312-0.90625-0.062698 0.007019-0.12381 0.031189-0.1875 0.031189-1.5286 0-2.75-2.0164-2.75-4.5312 0-1.8212 0.65988-3.394 1.5938-4.125-0.00499-0.54858 0.021805-1.1208 0.031204-1.6875-1.1554-0.51276-2-2.1207-2-4.0312 0-2.0931 1.0197-3.8099 2.3438-4.125 0.0345-0.50629 0.058899-0.98498 0.093704-1.4688-1.1899-0.50732-2.0625-2.2843-2.0625-4.4062 0-2.5148 1.2214-4.5312 2.75-4.5312 0.30475 0 0.59993 0.10175 0.875 0.25 0.82701-0.95691-0.43941-1.4044-0.32144-1.6875 0.89287-2.1428 1.4375-4.125 1.4375-6.625s-3.0491-5.1696-4.6562-6.0625c-0.45203-0.2511-1.2512-0.33032-2.1562-0.3125l1e-4 1e-4z" fill="url(#r)"/>
  <path d="m171.69 249.48l-0.1786 63.214-6.2076-0.4278-1.0159-2.6527-14.562-7.2767v-7.1428h4.4643l-0.3571-9.6429-2.1429 0.1786-0.5357-10h1.9643l0.3571-9.8214h-1.7857l-0.3571-15.357 20.357-1.0714z" fill="url(#q)"/>
  <rect x="179.38" y="249.33" width="9.0987" height="64.619" rx=".83411" ry=".72096" fill="url(#p)"/>
 </g>
 <rect id="a" transform="matrix(.9986 -.052852 .052852 .9986 0 0)" x="129.19" y="272.89" width="58.878" height="1.3694" rx=".83411" ry=".6543" fill="url(#ad)" stroke-width="3"/>
 <path d="m185.2 310.9c-0.003494 2.9905-4.4863 5.4138-10.015 5.4138s-10.012-2.4233-10.015-5.4138h20.03z" fill="url(#ae)"/>
 <path d="m148.06 300.78l14.417 7.1751c1.3251 0.66119 0.6736 3.2554 2.6907 3.2554h19.333c2.0171 0 1.3234-2.0233 3.0229-2.89l14.782-7.5406h-54.246z" fill="url(#l)" stroke-width="3"/>
 <path d="m155.11 53.07c-12.627 3.5355-22.496 10.098-29.062 15.906-6.566 5.8084-14.377 13.378-20.438 25.5-6.0609 12.122-7.5752 31.55-6.3125 45.188 1.2627 13.637 10.09 31.844 16.656 41.188 6.566 9.3439 14.646 20.961 15.656 31.062 1.0102 10.102 2.0312 19.934 2.0312 26 0 3.5446 2.011 7.5684 4.0312 10.094 2.0203 2.5254 6.8184 3.8125 9.3438 3.8125h55.969c2.5254 0 7.3234-1.2871 9.3438-3.8125 2.0203-2.5254 4.0312-6.5492 4.0312-10.094 0-6.0662 1.0211-15.898 2.0312-26 1.0102-10.102 9.0903-21.719 15.656-31.062 6.566-9.3439 15.394-27.55 16.656-41.188 1.2627-13.637-0.25159-33.066-6.3125-45.188s-13.872-19.692-20.438-25.5c-6.566-5.8084-16.436-12.371-29.062-15.906-12.627-3.5355-15.174-3.1361-21.881-3.035-6.7069 0.10105-8.43 0.38339-17.9 3.035z" fill="url(#ag)" opacity=".314"/>
 <use y="10.000001" width="744.09448" height="1052.3622" xlink:href="#a"/>
 <use y="19.82143" width="744.09448" height="1052.3622" xlink:href="#a"/>
 <use y="29.64286" width="744.09448" height="1052.3622" xlink:href="#a"/>
 <path d="m194.67 54.122c12.436 3.4819 22.157 9.9348 28.625 15.656 6.536 5.7818 14.211 13.235 20.188 25.188 5.8906 11.781 7.4658 31.125 6.2188 44.594-1.229 13.273-10.017 31.506-16.469 40.688-6.5706 9.3505-14.785 20.974-15.844 31.562-1.0099 10.099-2.0312 19.906-2.0312 26.094-0.13863 6.0152-2.1484 9.6638-5.5938 11.719-3.1344 1.8695-7.4158 2.425-12.5 2.5625 1.796 0.081406 3.8894 0.0914 5.9375-0.031204 2.6129-0.15648 5.0204-0.48433 5.8438-0.78125 1.9114-0.68924 2.9093-1.16 4.1562-2.7188 2.1562-2.6953 4.2812-6.7905 4.2812-10.75 0-5.9477 1.0208-15.771 2.0312-25.875 0.96292-9.6291 8.903-21.219 15.469-30.562 6.6844-9.5125 15.547-27.678 16.844-41.688 1.2787-13.81-0.17131-33.311-6.4062-45.781-6.1454-12.291-14.092-20.009-20.688-25.844-6.6647-5.8957-16.682-12.536-29.5-16.125-9.2455-2.5887-13.236-2.952-19.688-3.0625l-0.5-1e-4h-0.5c-6.4533 0.11047-10.474 0.47383-19.719 3.0625-12.818 3.5892-22.835 10.229-29.5 16.125-6.5956 5.8345-14.542 13.553-20.688 25.844-6.2349 12.47-7.6849 31.971-6.4062 45.781 1.2971 14.009 10.159 32.175 16.844 41.688 6.5657 9.3435 14.506 20.933 15.469 30.562 1.0104 10.104 2.0312 19.927 2.0312 25.875 0 3.9595 2.125 8.0547 4.2812 10.75 1.2449 1.5561 2.2747 2.029 4.1875 2.7188 0.8241 0.29716 3.2074 0.62479 5.8125 0.78125 2.0419 0.12264 4.1438 0.11266 5.9375 0.031204-5.0842-0.13748-9.3656-0.69304-12.5-2.5625-3.4453-2.0549-5.4551-5.7036-5.5938-11.719 0-6.1873-1.0214-15.995-2.0312-26.094-1.0588-10.588-9.2732-22.212-15.844-31.562-6.452-9.1818-15.24-27.414-16.469-40.688-1.2471-13.469 0.32811-32.812 6.2188-44.594 5.9762-11.952 13.652-19.406 20.188-25.188 6.4678-5.7215 16.19-12.174 28.625-15.656 9.2437-2.5882 12.845-2.9242 19.656-3.0312 6.81 0.10709 10.382 0.44311 19.625 3.0313z" fill="#001900" stroke-width="3"/>
 <g stroke-linecap="round" stroke-width="2">
  <rect x="170.76" y="164.93" width="8.0812" height="25.254" fill="url(#u)"/>
  <rect x="166.91" y="163.04" width="15.784" height="1.894" fill="url(#t)"/>
  <rect x="170.76" y="190.19" width="8.081" height="1.894" fill="url(#s)"/>
 </g>
 <use y="-0.000002" width="744.09448" height="1052.3622" filter="url(#al)" xlink:href="#o"/>
 <path id="o" d="m204.98 127.05l-18.814 65.912m-41.542-65.912l18.814 65.912m16.668-30.052l8.3338-31.441m-18.94 31.441l-8.3338-31.441m-17.668-6.3135c6.0609 10.102 13.89 8.3338 15.91 6.8185 2.0203-1.5152 2.5254-0.50507 4.2932 1.0102 1.7678 1.5152 5.5558 3.283 11.102 3.283 5.5457 0 9.3337-1.7678 11.102-3.283 1.7678-1.5152 2.2728-2.5254 4.2932-1.0102 2.0203 1.5152 9.849 3.283 15.91-6.8185" fill="none" stroke="#fff" stroke-linecap="round"/>
 <path d="m184.78 205.09c-0.003479 5.5067-4.4685 9.9689-9.9752 9.9689s-9.9718-4.4622-9.9752-9.9689c-0.003494-5.5117 4.4636-9.9816 9.9752-9.9816s9.9788 4.4699 9.9752 9.9816z" fill="url(#j)"/>
 <path d="m165.49 215.44h-2.9379s-4.1899-19.142-3.7451-20.855c0.44479-1.7123 6.3158-2.7576 6.3158-2.7576l0.3672 23.612z" fill="url(#w)"/>
 <path d="m184.12 215.44h2.9379s4.1899-19.142 3.7451-20.855c-0.44479-1.7123-6.3158-2.7576-6.3158-2.7576l-0.3672 23.612z" fill="url(#x)"/>
 <path d="m163.3 215.44c-1.3991 0-2.5 1.1322-2.5 2.5312v3.2812h28.406v-3.2812c0-1.3991-1.1322-2.5312-2.5312-2.5312h-23.375z" fill="url(#y)"/>
 <g fill="none" stroke="#fff" stroke-linecap="round">
  <path d="m163.44 192.96l1.8309 22.602"/>
  <path d="m186.17 192.96l-1.8309 22.602"/>
 </g>
 <rect transform="scale(-1 1)" x="-189.21" y="221.25" width="5.9208" height="30.806" fill="url(#g)"/>
 <rect x="160.8" y="221.25" width="5.9208" height="30.806" fill="url(#g)"/>
 <path d="m145.86 250.81c-0.45136 0-0.8125 0.31934-0.8125 0.71875v2.5938h59.938v-2.5938c0-0.39941-0.36116-0.71875-0.8125-0.71875h-58.312z" fill="url(#af)" stroke-width="3"/>
</svg>
